<svg xmlns="http://www.w3.org/2000/svg" xmlns:svg="http://www.w3.org/2000/svg" id="svg2" width="16" height="16" x="0" y="0" enable-background="new 0 0 16 16" version="1.1" viewBox="0 0 16 16" xml:space="preserve"><path style="fill:#fc7f7f;fill-opacity:1;stroke-width:.764771" id="path4012" d="M 1.5898438,5.5417983 C 1.0957744,5.5354539 0.56716339,5.5780631 0,5.6788781 V 15.955806 H 16 V 10.513229 C 8.6990968,16.833739 9.0008839,5.6369638 1.5898438,5.5417983 Z"/><path id="path16308" fill="#FC7F7F" d="M8.064,1.4 C7.156,1.38,6.351,1.753,5.732,2.275C5.124,2.788,4.711,3.42,4.398,4.035C3.774,5.26,3.475,6.414,2.908,7.173 c-0.483,0.65-1.224,1.135-2.013,1.315L0,8.646V10.8c1.843,0.457,5.033-1.792,5.506-4.325C6.03,5.322,6.454,3.693,7.883,3.408h0.049 l0.1-0.006c1.329,0.167,1.81,1.646,2.282,2.701c0.816,3.09,3.985,4.793,5.687,4.59V8.568l-0.797-0.166 c-0.888-0.183-1.726-0.729-2.248-1.467c-0.524-0.739-0.819-1.83-1.424-2.988c-0.304-0.581-0.698-1.178-1.271-1.668 C9.678,1.784,8.924,1.418,8.064,1.4z" display="none"/><path id="path16308_2_" fill="#FC7F7F" d="M8.064,2.835 C7.156,2.815,6.351,3.188,5.732,3.71c-0.608,0.513-1.021,1.145-1.334,1.76C3.774,6.695,3.475,7.85,2.908,8.608 c-0.483,0.65-1.224,1.136-2.013,1.315L0,10.082v2.153c1.843,0.457,5.033-1.792,5.506-4.325C6.03,6.758,6.454,5.128,7.883,4.844 h0.049l0.1-0.006c1.329,0.167,1.81,1.646,2.282,2.701c0.816,3.09,3.985,4.793,5.687,4.59v-2.125l-0.797-0.166 c-0.888-0.183-1.726-0.729-2.248-1.466c-0.524-0.739-0.819-1.83-1.424-2.988c-0.304-0.581-0.698-1.178-1.271-1.668 C9.678,3.22,8.924,2.854,8.064,2.835z" display="none"/><path id="path16308_1_" fill="#FC7F7F" d="M0,6.91v2.139 c1.578,0,16.001,0,16.001,0V6.91H0z" display="none"/><path id="path2040" fill="#FC7F7F" d="M10.064,9.872C9.579,8.813,9.3,6.726,7.882,6.742C6.454,7.026,6.5,8.686,5.976,9.842 C5.39,11.51,1.708,12.982,0,13.574V16c4,0,12,0,16,0v-2.537C14.176,12.84,10.674,11.646,10.064,9.872z" display="none"/><path id="path2042" fill="#FC7F7F" d="M0,8c0,0,0.917,2.709,2.104,2.479S3,5.375,4.063,5.167s0.521,6.083,2.188,5.958 S6.104,4.313,8.458,3.438s-1.583,7.979,0.563,8.688s2.208-8.479,4.521-9.729s-1.292,10.271,1.375,10.75" display="none"/><path id="rect12437" d="M 0,0 14.842,0.004 16,0 Z"/><path id="path7096" style="fill:#fc7f7f;fill-opacity:1;stroke-width:.764771" d="M 0,2.0234375 V 3.8085938 C 2.8512164,3.4688215 4.2747356,4.3685854 5.2041205,5.9137947 6.7118368,6.8603322 6.6718914,7.2163955 8.3808594,8.5644531 6.2801351,4.1747406 5.2031416,1.5917313 0,2.0234375 Z"/></svg>